<?xml version="1.0" encoding="utf-8"?>
<!-- Generator: Adobe Illustrator 16.0.0, SVG Export Plug-In . SVG Version: 6.00 Build 0)  -->
<!DOCTYPE svg PUBLIC "-//W3C//DTD SVG 1.1//EN" "http://www.w3.org/Graphics/SVG/1.1/DTD/svg11.dtd">
<svg version="1.1" xmlns="http://www.w3.org/2000/svg" xmlns:xlink="http://www.w3.org/1999/xlink" x="0px" y="0px" width="500px"
	 height="500px" viewBox="0 0 500 500" enable-background="new 0 0 500 500" xml:space="preserve">
<g id="Fork_x2F_Knife" display="none">
	<path display="inline" fill="#8C8C8C" d="M380.877,467.47L197.671,262.11L13.235,74.103c0,0,100.93-45.156,196.91,162.115
		l206.179,196.384C416.324,432.602,420.826,466.531,380.877,467.47z"/>
	<path display="inline" fill="#8C8C8C" d="M103.507,461.143l243.67-247.137c0,0,31.363,9.529,54.394-13.828l0.308-0.31l83.73-84.921
		c0,0,3.235-6.407-1.135-10.715c-4.37-4.309-10.732-0.982-10.732-0.982l-81.195,82.193l-0.933,0.945c0,0-17.466,2.935-15.602-14.903
		l83.729-84.92c0,0,2.988-6.649-2.066-11.634c-5.056-4.986-11.662-1.902-11.662-1.902l-83.729,84.92
		c-17.809,2.118-14.462-15.669-14.462-15.669l81.701-82.631c0,0,3.236-6.407-1.135-10.716c-4.367-4.308-10.729-0.982-10.729-0.982
		l-84.884,85.7c-23.031,23.358-14.212,55.364-14.212,55.364L76.504,434.52c0,0-13.155,15.344-0.555,27.764
		C88.546,474.707,103.507,461.143,103.507,461.143z"/>
</g>
<g id="Cookie">
	<g id="Layer_4">
		<rect fill="#BC9F6E" width="500" height="500"/>
	</g>
	<path fill="#BC9F6E" d="M500,250c0,138.076-111.924,250-250,250S0,388.076,0,250S111.924,0,250,0S500,111.924,500,250z"/>
	<g id="Layer_5">
		<g>
			<g>
				<path fill="#574630" d="M42.906,27.73c-1.271,0.65-2.507,1.368-3.807,1.96c1.592-0.672,3.185-1.344,4.777-2.016
					c-0.631,0.253-1.234,0.438-1.906,0.543c1.772-0.238,3.544-0.476,5.317-0.714c-0.324,0.035-0.647,0.035-0.971,0
					c1.772,0.238,3.545,0.476,5.317,0.714c-0.554-0.092-1.032-0.232-1.556-0.437c1.593,0.672,3.185,1.344,4.778,2.016
					c-0.628-0.314-1.187-0.663-1.761-1.067c2.392,9.122,4.784,18.243,7.175,27.364c0.489-1.114,1.064-2.171,1.797-3.145
					c-1.042,1.349-2.085,2.698-3.127,4.047c0.461-0.583,0.964-1.111,1.541-1.582c-1.349,1.042-2.699,2.085-4.048,3.127
					c0.516-0.397,1.06-0.725,1.657-0.983c-1.592,0.672-3.185,1.344-4.777,2.016c0.5-0.198,1.005-0.337,1.536-0.421
					c-1.772,0.238-3.545,0.476-5.317,0.714c0.655-0.084,1.299-0.079,1.954,0.004c-1.772-0.238-3.544-0.477-5.317-0.714
					c0.735,0.113,1.437,0.315,2.126,0.593c-1.593-0.672-3.185-1.344-4.778-2.016c0.977,0.416,1.876,0.961,2.72,1.604
					c-1.349-1.042-2.698-2.085-4.048-3.127c0.97,0.763,1.833,1.633,2.599,2.601c-1.042-1.349-2.085-2.698-3.127-4.047
					c0.722,0.94,1.333,1.946,1.801,3.036c-0.672-1.593-1.344-3.185-2.016-4.778c0.311,0.763,0.542,1.542,0.655,2.359
					c-0.238-1.772-0.476-3.544-0.714-5.316c0.059,0.517,0.068,1.026,0.01,1.543c0.238-1.772,0.476-3.544,0.714-5.317
					c-0.063,0.435-0.17,0.847-0.336,1.254c0.672-1.592,1.344-3.185,2.016-4.777c-0.135,0.298-0.294,0.574-0.485,0.84
					c1.042-1.349,2.085-2.698,3.127-4.047c-0.247,0.318-0.523,0.593-0.837,0.845c1.349-1.042,2.698-2.085,4.048-3.127
					c-0.361,0.268-0.74,0.485-1.148,0.672c1.592-0.672,3.185-1.344,4.777-2.016c-0.716,0.301-1.456,0.483-2.222,0.602
					c1.772-0.238,3.544-0.476,5.317-0.714c-1.706,0.224-3.416,0.121-5.116-0.104c1.772,0.238,3.544,0.476,5.317,0.714
					c-2.466-0.359-4.873-0.981-7.25-1.718c-10.413-3.226-21.782,3.715-24.603,13.969c-2.96,10.762,3.564,21.379,13.969,24.603
					c9.728,3.013,21.754,4.517,30.853-1.257c5.186-3.291,10.012-8.683,11.122-14.938c0.863-4.867,1.282-9.981-0.643-14.7
					c-2.158-5.292-3.829-8.523-7.785-12.851c-2.265-2.477-5.104-4.736-8.146-6.178c-4.406-2.087-9.533-4.138-14.552-3.493
					c-5.842,0.75-6.596,0.774-12.006,3.322c-2.332,1.098-4.411,2.908-6.202,4.742c-2.205,2.257-4.3,5.032-5.592,7.974
					c-0.672,1.592-1.344,3.185-2.016,4.777c-0.953,3.544-0.953,7.089,0,10.634c1.469,5.341,4.79,8.857,9.191,11.953
					c2.146,1.509,4.633,2.338,7.075,3.292c4.083,1.596,8.494,0.874,12.624,0.227c3.738-0.585,7.147-2.809,10.49-4.52
					c9.697-4.963,12.45-18.359,7.175-27.364c-2.619-4.471-6.954-7.816-11.953-9.191C52.913,24.228,47.792,25.229,42.906,27.73
					L42.906,27.73z"/>
			</g>
		</g>
		<g>
			<g>
				<path fill="#574630" d="M337.285,458.316c0.041-0.108,0.082-0.217,0.123-0.325c-0.672,1.593-1.344,3.186-2.016,4.777
					c0.242-0.52,0.537-0.983,0.878-1.443c-1.042,1.349-2.085,2.698-3.127,4.048c1.396-1.786,2.819-3.51,4.166-5.355
					c1.385-1.898,2.227-4.352,2.937-6.486c2.168-6.513,0.278-13.869-2.977-19.626c-2.392,9.122-4.783,18.243-7.175,27.364
					c0.199-0.095,0.399-0.188,0.599-0.283c-1.592,0.672-3.185,1.344-4.777,2.016c0.609-0.249,1.184-0.449,1.837-0.537
					c-1.772,0.238-3.545,0.477-5.316,0.714c0.115-0.001,0.23-0.002,0.345-0.003c-1.771-0.238-3.544-0.477-5.316-0.714
					c0.204,0.011,0.401,0.053,0.592,0.126c-1.593-0.672-3.186-1.344-4.778-2.016c0.178,0.07,0.343,0.163,0.494,0.28
					c-1.35-1.043-2.699-2.085-4.048-3.127c0.819,0.694,1.394,1.64,2.133,2.417c7.516,7.895,20.722,7.563,28.285,0
					c7.847-7.848,7.511-20.394,0-28.285c-2.146-2.253-3.51-4.309-6.675-5.824c-0.721-0.345-3.565-1.897-5.369-2.143
					c-6.854-0.934-4.126-0.924-10.979,0.003c-2.528,0.342-4.98,1.782-7.214,2.837c-4.487,2.12-7.917,7.323-9.19,11.953
					c-1.438,5.227-0.638,10.719,2.016,15.411c0.205,0.339,0.391,0.688,0.556,1.048c-0.672-1.593-1.344-3.186-2.017-4.778
					c0.242,0.582,0.421,1.136,0.518,1.759c-0.238-1.771-0.477-3.544-0.715-5.316c0.028,0.246,0.031,0.493,0.011,0.74
					c0.238-1.772,0.477-3.544,0.715-5.316c-0.047,0.343-0.117,0.649-0.227,0.978c0.673-1.592,1.345-3.185,2.017-4.777
					c-0.217,0.508-0.492,0.953-0.817,1.398c1.042-1.35,2.085-2.698,3.127-4.048c-1.387,1.793-2.805,3.52-4.165,5.354
					c-1.434,1.932-2.185,4.341-3.018,6.548c-1.813,4.796-0.485,11.141,2.016,15.411c2.619,4.471,6.953,7.815,11.953,9.19
					c5.162,1.42,10.792,0.69,15.411-2.016C332.904,467.452,335.374,463.375,337.285,458.316L337.285,458.316z"/>
			</g>
		</g>
		<g>
			<g>
				<path fill="#574630" d="M481,89c-0.003-0.344,0.025-0.685,0.085-1.022c-0.237,1.772-0.476,3.544-0.714,5.316
					c0.048-0.274,0.129-0.538,0.244-0.791c-0.672,1.592-1.344,3.185-2.017,4.777c0.059-0.104,0.117-0.209,0.177-0.313
					c-1.043,1.349-2.085,2.698-3.128,4.047c0.122-0.183,0.271-0.339,0.448-0.47c-1.35,1.042-2.698,2.085-4.048,3.127
					c0.09-0.054,0.179-0.107,0.268-0.16c-1.592,0.672-3.185,1.344-4.777,2.016c0.194-0.092,0.398-0.152,0.611-0.179
					c-1.771,0.238-3.544,0.476-5.316,0.714c0.232-0.029,0.465-0.03,0.697-0.002c-1.771-0.238-3.544-0.476-5.316-0.714
					c0.56,0.091,1.059,0.252,1.581,0.472c-1.593-0.672-3.185-1.344-4.777-2.016c0.767,0.377,1.458,0.826,2.138,1.342
					c-1.349-1.042-2.698-2.085-4.048-3.127c0.896,0.738,1.689,1.54,2.429,2.434c-1.042-1.349-2.085-2.698-3.127-4.048
					c0.719,0.94,1.321,1.91,1.816,2.985c-0.672-1.592-1.344-3.185-2.017-4.777c0.277,0.697,0.485,1.378,0.629,2.114
					c-0.238-1.772-0.476-3.544-0.714-5.317c0.086,0.716,0.09,1.373-0.006,2.087c0.237-1.772,0.476-3.544,0.714-5.317
					c-0.039,0.168-0.078,0.337-0.117,0.505c0.672-1.592,1.344-3.185,2.016-4.777c-0.358,0.818-0.761,1.55-1.284,2.272
					c1.042-1.349,2.084-2.698,3.127-4.047c-0.379,0.445-0.761,0.831-1.206,1.208c1.349-1.042,2.698-2.085,4.048-3.127
					c-0.442,0.315-0.873,0.573-1.361,0.81c1.593-0.672,3.186-1.344,4.777-2.016c-0.488,0.188-0.955,0.326-1.467,0.433
					c1.771-0.238,3.544-0.476,5.316-0.714c-0.693,0.089-1.344,0.097-2.04,0.032c1.772,0.238,3.545,0.476,5.317,0.714
					c-0.707-0.115-1.36-0.292-2.03-0.542c1.592,0.672,3.185,1.344,4.777,2.017c-0.853-0.378-1.61-0.833-2.352-1.399
					c1.35,1.042,2.699,2.084,4.048,3.127c-0.586-0.504-1.102-1.033-1.593-1.63c1.043,1.349,2.085,2.699,3.128,4.048
					c-0.473-0.648-0.864-1.304-1.214-2.025c0.672,1.592,1.344,3.185,2.016,4.777c-0.404-0.984-0.662-1.95-0.81-3.004
					c0.237,1.772,0.476,3.545,0.714,5.317c-0.07-0.921-0.049-1.796,0.056-2.714c-0.238,1.772-0.477,3.544-0.714,5.317
					c0.07-0.487,0.171-0.967,0.301-1.442c2.551-10.591-3.211-21.644-13.969-24.603c-10.248-2.819-22.051,3.372-24.602,13.969
					c-3.177,13.192,1.73,28.076,14.309,34.583c6.475,3.349,13.857,4.585,20.962,2.496c6.785-1.996,13.402-7.091,16.284-13.667
					c1.76-4.016,3.396-8.187,2.854-12.687c-0.687-5.694-1.17-7.452-3.599-12.729c-2.448-5.317-7.107-8.981-11.611-12.399
					c-5.55-4.212-13.169-4.808-19.716-3.435C446.955,68.993,441.386,79.387,441,89c-0.438,10.9,9.429,20,20,20
					C472.233,109,480.563,99.89,481,89L481,89z"/>
			</g>
		</g>
		<g>
			<g>
				<path fill="#574630" d="M53.094,413.73c-0.337-0.199-0.674-0.399-1.012-0.6c2.005,1.191,3.577,2.811,4.715,4.858
					c5.511,7.736,0.769,19.029-6.341,23.71c-9.594,6.314-22.066-0.126-25.877-10.566c-0.734-2.532-0.777-5.07-0.13-7.615
					c-0.191,0.74-0.436,1.462-0.734,2.166c-3.864,10.207,4.198,21.914,13.969,24.602c11.254,3.096,20.747-3.782,24.603-13.969
					c6.505-17.185-8.07-36.843-26.853-31.352c-10.131,2.961-15.403,11.483-16.383,21.576c-0.894,9.203,6.608,17.436,13.856,21.729
					c9.384,5.559,21.882,2.182,27.364-7.175C65.803,431.648,62.458,419.277,53.094,413.73L53.094,413.73z"/>
			</g>
		</g>
		<g>
			<g>
				<path fill="#574630" d="M437.73,459.905c-2.693,4.785-3.037,9.153-3.636,14.439c0.238-1.772,0.476-3.544,0.714-5.316
					c-0.034,0.136-0.068,0.271-0.103,0.407c0.673-1.593,1.345-3.186,2.017-4.778c-0.06,0.12-0.118,0.24-0.178,0.359
					c1.043-1.349,2.085-2.698,3.128-4.048c-0.092,0.103-0.184,0.204-0.275,0.306c1.35-1.042,2.699-2.085,4.048-3.127
					c-0.132,0.082-0.264,0.165-0.396,0.247c1.593-0.672,3.185-1.344,4.777-2.016c-0.398,0.168-0.813,0.267-1.247,0.297
					c1.772-0.238,3.545-0.477,5.317-0.715c-0.3,0.013-0.599,0.026-0.897,0.039c6.429,8.438,12.857,16.878,19.285,25.316
					c0.179-0.923,0.41-1.789,0.75-2.666c-0.672,1.592-1.344,3.185-2.016,4.777c0.263-0.557,0.543-1.055,0.891-1.563
					c-1.043,1.35-2.085,2.698-3.127,4.048c0.364-0.444,0.73-0.817,1.172-1.188c-1.35,1.042-2.699,2.085-4.048,3.127
					c0.473-0.326,0.928-0.579,1.453-0.813c-1.593,0.672-3.186,1.345-4.778,2.017c0.579-0.198,1.132-0.335,1.734-0.438
					c-1.771,0.238-3.544,0.476-5.316,0.714c0.93-0.091,1.819-0.079,2.75,0c-1.772-0.238-3.545-0.476-5.316-0.714
					c1.105,0.15,2.171,0.379,3.25,0.666c-1.593-12.185-3.186-24.369-4.778-36.555c-0.705,0.436-1.417,0.826-2.169,1.176
					c1.593-0.672,3.186-1.344,4.777-2.016c-0.967,0.4-1.929,0.695-2.964,0.859c1.772-0.238,3.545-0.477,5.317-0.715
					c-0.733,0.078-1.438,0.086-2.171,0.005c1.772,0.238,3.544,0.477,5.316,0.715c-0.651-0.109-1.256-0.277-1.867-0.529
					c1.593,0.672,3.186,1.344,4.778,2.017c-0.444-0.214-0.853-0.452-1.255-0.736c1.35,1.043,2.698,2.085,4.048,3.128
					c-0.464-0.367-0.868-0.763-1.243-1.221c1.042,1.35,2.084,2.699,3.127,4.048c-0.34-0.461-0.618-0.933-0.855-1.454
					c0.673,1.592,1.345,3.185,2.017,4.777c-0.204-0.52-0.347-1.032-0.437-1.583c0.238,1.772,0.477,3.545,0.715,5.316
					c-0.058-0.543-0.056-1.062,0.013-1.604c-0.238,1.772-0.477,3.545-0.714,5.316c0.08-0.427,0.193-0.822,0.354-1.227
					c-0.672,1.593-1.344,3.185-2.017,4.777c0.191-0.402,0.409-0.762,0.677-1.117c-1.043,1.349-2.085,2.698-3.127,4.048
					c0.229-0.266,0.464-0.502,0.728-0.734c-1.35,1.043-2.698,2.085-4.048,3.128c0.518-0.399,1.053-0.699,1.653-0.956
					c-1.593,0.672-3.186,1.344-4.777,2.017c0.731-0.264,1.458-0.426,2.229-0.529c-1.772,0.238-3.545,0.477-5.316,0.715
					c1.171-0.103,2.311-0.057,3.478,0.078c-1.772-0.238-3.545-0.477-5.317-0.714c0.957,0.144,1.891,0.337,2.83,0.569
					c10.573,2.623,21.657-3.265,24.602-13.969c2.834-10.303-3.391-21.979-13.969-24.602c-8.224-2.04-17.954-2.302-25.313,2.631
					c-5.508,3.691-8.49,7.978-10.882,14.024c-1.784,4.513-1.059,9.205-0.314,13.786c0.722,4.439,3.639,8.2,6.382,11.541
					c3.021,3.679,7.093,5.354,11.324,7.1c7.754,3.197,17.757,0.687,24.582-3.527C479.134,483.541,483,477.182,483,470
					c0-8.842-6.096-16.995-14.684-19.285c-3.241-0.865-6.661-1.366-10.004-1.465c-5.192-0.154-9.061,1.438-13.657,3.48
					c-6.627,2.945-11.62,11.105-12.94,17.953c-1.05,5.439-0.86,10.502,2.016,15.411c3.443,5.878,10.313,10.208,17.27,9.905
					c7.702-0.336,16.396-3.319,20.084-10.795c2.336-4.734,2.423-5.676,3.011-10.86c0.097-0.855,0.087-1.714,0.201-2.568
					c-0.238,1.771-0.477,3.544-0.714,5.316c0.071-0.408,0.193-0.801,0.366-1.177c-0.672,1.593-1.344,3.185-2.016,4.777
					c0.112-0.199,0.225-0.399,0.337-0.599c5.349-9.504,2.337-21.792-7.175-27.364C455.807,447.29,443.07,450.419,437.73,459.905
					L437.73,459.905z"/>
			</g>
		</g>
	</g>
	<g>
		<g>
			<path fill="#574630" d="M387,163.498c12.266,0,22.5-10.235,22.5-22.5s-10.234-22.5-22.5-22.5s-22.5,10.235-22.5,22.5
				S374.734,163.498,387,163.498L387,163.498z"/>
		</g>
	</g>
	<g>
		<g>
			<path fill="#574630" d="M332.334,261.498c12.266,0,22.5-10.235,22.5-22.5s-10.234-22.5-22.5-22.5s-22.5,10.235-22.5,22.5
				S320.068,261.498,332.334,261.498L332.334,261.498z"/>
		</g>
	</g>
	<g>
		<g>
			<path fill="#574630" d="M238.333,414.831c12.265,0,22.5-10.234,22.5-22.5s-10.235-22.5-22.5-22.5s-22.5,10.234-22.5,22.5
				S226.068,414.831,238.333,414.831L238.333,414.831z"/>
		</g>
	</g>
	<g>
		<g>
			<path fill="#574630" d="M153,258.164c12.265,0,22.5-10.235,22.5-22.5s-10.235-22.5-22.5-22.5s-22.5,10.235-22.5,22.5
				S140.735,258.164,153,258.164L153,258.164z"/>
		</g>
	</g>
	<g>
		<g>
			<path fill="#574630" d="M157.667,365.497c12.265,0,22.5-10.234,22.5-22.5s-10.235-22.5-22.5-22.5s-22.5,10.234-22.5,22.5
				S145.402,365.497,157.667,365.497L157.667,365.497z"/>
		</g>
	</g>
	<g>
		<g>
			<path fill="#574630" d="M259,142.164c12.266,0,22.5-10.235,22.5-22.5s-10.234-22.5-22.5-22.5c-12.265,0-22.5,10.235-22.5,22.5
				S246.735,142.164,259,142.164L259,142.164z"/>
		</g>
	</g>
	<g>
		<g>
			<path fill="#574630" d="M393.667,392.831c12.266,0,22.5-10.234,22.5-22.5s-10.234-22.5-22.5-22.5s-22.5,10.234-22.5,22.5
				S381.401,392.831,393.667,392.831L393.667,392.831z"/>
		</g>
	</g>
	<g>
		<g>
			<path fill="#574630" d="M39.667,294.831c12.265,0,22.5-10.234,22.5-22.5s-10.235-22.5-22.5-22.5s-22.5,10.234-22.5,22.5
				S27.402,294.831,39.667,294.831L39.667,294.831z"/>
		</g>
	</g>
	<g>
		<g>
			<path fill="#574630" d="M116.333,152.831c12.265,0,22.5-10.235,22.5-22.5s-10.235-22.5-22.5-22.5s-22.5,10.235-22.5,22.5
				S104.068,152.831,116.333,152.831L116.333,152.831z"/>
		</g>
	</g>
	<g>
		<g>
			<path fill="#574630" d="M301,70.164c12.266,0,22.5-10.235,22.5-22.5s-10.234-22.5-22.5-22.5s-22.5,10.235-22.5,22.5
				S288.734,70.164,301,70.164L301,70.164z"/>
		</g>
	</g>
	<g>
		<g>
			<path fill="#574630" d="M317,470.164c12.266,0,22.5-10.234,22.5-22.5s-10.234-22.5-22.5-22.5s-22.5,10.234-22.5,22.5
				S304.734,470.164,317,470.164L317,470.164z"/>
		</g>
	</g>
	<g>
		<g>
			<path fill="#574630" d="M453.667,268.83c12.266,0,22.5-10.234,22.5-22.5s-10.234-22.5-22.5-22.5s-22.5,10.235-22.5,22.5
				S441.401,268.83,453.667,268.83L453.667,268.83z"/>
		</g>
	</g>
	<g>
		<g>
			<path fill="#574630" d="M151.667,451.497c12.265,0,22.5-10.234,22.5-22.5s-10.235-22.5-22.5-22.5s-22.5,10.234-22.5,22.5
				S139.402,451.497,151.667,451.497L151.667,451.497z"/>
		</g>
	</g>
	<g>
		<g>
			<path fill="#574630" d="M274.91,269.574c0.084-0.084,0.173-0.162,0.267-0.234c-1.518,1.173-3.036,2.345-4.554,3.518
				c0.294-0.212,0.611-0.369,0.934-0.533c1.994-1.016,3.727-2.561,5.354-4.083c4.27-3.997,6.59-10.132,6.59-15.91
				c0-5.943-2.39-11.709-6.59-15.91c-4.201-4.201-9.967-6.59-15.91-6.59c-1.994,0.268-3.987,0.536-5.981,0.804
				c-3.812,1.069-7.121,2.998-9.928,5.787c-0.084,0.083-0.173,0.162-0.267,0.234c1.518-1.173,3.036-2.346,4.554-3.518
				c-0.294,0.212-0.611,0.369-0.933,0.533c-1.994,1.016-3.727,2.561-5.354,4.084c-4.27,3.997-6.59,10.131-6.59,15.91
				c0,5.943,2.39,11.709,6.59,15.91c4.2,4.2,9.966,6.59,15.91,6.59c1.994-0.268,3.987-0.536,5.981-0.804
				C268.793,274.291,272.103,272.362,274.91,269.574L274.91,269.574z"/>
		</g>
	</g>
	<g>
		<g>
			<path fill="#574630" d="M314.715,238.093c-0.346,0.543-0.691,1.086-1.037,1.629c2.988-2.297,5.977-4.595,8.965-6.893
				c-0.321,0.124-0.643,0.247-0.963,0.37c6.329,4.822,12.658,9.643,18.987,14.464c-0.434-4.332-0.185-8.963-1.825-13.057
				c-2.97-7.41-7.771-11.326-15.188-14.074c2.207,8.357,4.413,16.714,6.619,25.071c0.572-0.575,3.58-3.152,0.191-0.54
				c0.992-0.764,3.599-1.786-0.836,0c0.206-0.062,0.413-0.124,0.619-0.186c-1.916,0.519-3.826,0.497-5.732-0.066
				c1.413,0.406,0.707,0.095-2.118-0.934c-2.254-1.874-2.828-2.313-1.724-1.319c1.843,1.69-2.3-3.27-0.786-1.111
				c0.394,0.56,0.729,1.162,1.067,1.755c0.857,1.502,1.575,3.087,2.32,4.646c4.223,8.836,11.554,17.523,22.392,16.816
				c9.781-0.638,16.981-9.083,14.464-18.988c-1.345-5.292-1.938-10.067-4.845-14.917c-4.197-7-13.41-9.548-20.522-5.381
				c-6.99,4.095-9.589,13.506-5.382,20.523c0.943,1.69,1.023,1.722,0.241,0.096c0.22,0.765,0.393,1.54,0.519,2.325
				c0.344,1.79,0.611,3.56,1.062,5.33c4.821-6.329,9.643-12.658,14.464-18.987c-2.579,0.168,4.096,0.964,1.704,0.319
				c2.672,1.273,3.369,1.525,2.093,0.757c2.21,1.824,2.777,2.215,1.704,1.173c-1.821-1.837,2.271,3.211,0.764,0.963
				c-0.529-0.791-0.975-1.639-1.421-2.479c-1.707-3.208-2.994-6.635-5.092-9.625c-4.177-5.953-9.908-10.267-17.443-10.505
				c-7.446-0.235-13.878,4.057-18.915,9.123c-8.478,8.527-3.723,21.238,6.619,25.071c-2.768-1.037-4.559-3.005-5.375-5.905
				c0.379,1.619,0.387,1.379,0.023-0.719c0.158,1.605,0.178,3.22,0.339,4.826c0.877,8.772,9.081,18.275,18.987,14.464
				c5.078-1.953,8.057-4.325,10.965-8.894c4.396-6.903,1.468-16.51-5.381-20.522C327.981,228.461,319.098,231.21,314.715,238.093
				L314.715,238.093z"/>
		</g>
	</g>
	<g>
		<g>
			<path fill="#574630" d="M387.654,131.866c-0.675-0.202-1.342-0.427-2.001-0.675c2.041,0.902,2.343,1.016,0.904,0.343
				c-1.379-0.659-2.675-1.489-3.951-2.325c-2.508-1.643-4.884-3.485-7.368-5.165c-2.524,9.317-5.048,18.635-7.571,27.952
				c-2.569-1.071-5.138-2.141-7.707-3.212c1.033,1.091,0.84,0.796-0.578-0.884c4.698,6.67,13.018,9.778,20.522,5.381
				c6.604-3.869,10.099-13.826,5.382-20.523c-4.558-6.471-9.535-9.975-17.619-10.762c-6.551-0.638-12.824,5.049-14.464,11.012
				c-1.874,6.812,1.272,13.141,6.893,16.94c6.41,4.333,12.065,8.45,19.584,10.845c7.791,2.481,16.349-2.833,18.451-10.477
				C400.364,142.198,395.438,134.346,387.654,131.866L387.654,131.866z"/>
		</g>
	</g>
	<g>
		<g>
			<path fill="#574630" d="M383.238,144.616c1.461-0.782,2.794-1.856,3.964-3.026c2.397-2.398,3.156-4.261,4.346-7.355
				c0.601-1.564,0.762-3.333,0.708-5.003c-0.122-3.755-0.778-5.12-2.304-8.472c-0.782-1.012-1.563-2.024-2.346-3.036
				c-1.871-1.859-4.078-3.145-6.619-3.858c-3.871-1.065-8.094-0.517-11.558,1.512c-3.354,1.964-5.862,5.215-6.894,8.964
				c-0.179,1.33-0.357,2.659-0.536,3.988c0.009,2.708,0.691,5.231,2.048,7.571c0.027,0.061,0.056,0.121,0.083,0.182
				c-0.504-1.194-1.008-2.389-1.513-3.583c0.066,0.181,0.116,0.353,0.153,0.542c-0.179-1.329-0.357-2.658-0.536-3.988
				c0.027,0.24,0.026,0.46-0.005,0.7c0.179-1.33,0.357-2.659,0.536-3.988c-0.037,0.172-0.084,0.33-0.147,0.494
				c0.504-1.194,1.008-2.389,1.513-3.583c-0.104,0.217-0.222,0.409-0.368,0.599c0.781-1.012,1.563-2.024,2.346-3.036
				c-0.167,0.19-0.343,0.354-0.543,0.509c1.013-0.782,2.024-1.564,3.036-2.346c-0.165,0.114-0.33,0.214-0.507,0.308
				c-3.363,1.799-5.896,5.337-6.893,8.964c-1.065,3.872-0.518,8.094,1.512,11.559c1.964,3.353,5.215,5.862,8.965,6.894
				C375.676,147.228,379.636,146.542,383.238,144.616L383.238,144.616z"/>
		</g>
	</g>
	<g>
		<g>
			<path fill="#574630" d="M369.667,111.331c-0.384,0-0.768,0.002-1.15,0.035c-1.466,0.123-2.928,0.333-4.377,0.591
				c-0.157,0.028-0.307,0.079-0.454,0.139c0.542-0.22-2.835,0.935-3.861,1.678c-3.402,2.466-3.046,2.145-5.53,5.528
				c-1.641,2.234-2.193,5.704-2.294,8.362c-0.147,3.889,1.681,7.894,4.394,10.606c2.8,2.8,6.645,4.394,10.606,4.394
				s7.807-1.593,10.606-4.394c0.782-1.012,1.563-2.024,2.346-3.036c1.356-2.339,2.039-4.863,2.048-7.571
				c0-0.092,0.007-0.184,0.021-0.275c-0.179,1.329-0.357,2.658-0.536,3.988c0.014-0.081,0.034-0.158,0.063-0.234
				c-0.504,1.194-1.008,2.389-1.513,3.583c0.046-0.104,0.096-0.19,0.163-0.282c-0.782,1.012-1.564,2.024-2.346,3.036
				c0.045-0.054,0.095-0.103,0.149-0.147c-1.012,0.782-2.024,1.564-3.036,2.346c0.09-0.065,0.179-0.117,0.278-0.167
				c-1.194,0.504-2.389,1.008-3.583,1.512c0.23-0.094,0.464-0.145,0.71-0.179c-1.33,0.179-2.659,0.357-3.988,0.536
				c0.427-0.047,0.855-0.049,1.284-0.049c3.963-0.002,7.806-1.592,10.606-4.394c2.801-2.8,4.394-6.644,4.394-10.606
				s-1.593-7.806-4.394-10.606C377.475,112.925,373.629,111.329,369.667,111.331L369.667,111.331z"/>
		</g>
	</g>
	<g>
		<g>
			<path fill="#574630" d="M307.43,44.712c-0.199,0.099-0.401,0.191-0.606,0.277c1.194-0.504,2.389-1.008,3.583-1.512
				c-3.255,1.352-6.633,2.468-9.699,4.225c-4.342,2.486-8.484,6.522-10.659,11.057c-3.536,7.372-2.095,16.144,5.382,20.523
				c6.615,3.875,16.987,1.989,20.522-5.381c0.379-0.791,0.803-1.514,1.311-2.229c-0.781,1.012-1.563,2.024-2.345,3.036
				c0.756-0.95,1.589-1.76,2.547-2.505c-1.013,0.782-2.024,1.564-3.036,2.346c1.341-0.961,2.772-1.71,4.285-2.362
				c-1.194,0.504-2.389,1.008-3.583,1.512c2.481-1.028,5.01-1.924,7.439-3.083c7.379-3.518,9.25-13.92,5.382-20.523
				c-1.964-3.353-5.215-5.862-8.965-6.894C314.846,42.061,311.189,42.919,307.43,44.712L307.43,44.712z"/>
		</g>
	</g>
	<g>
		<g>
			<path fill="#574630" d="M272.94,96.391c-8.246-8.702-23.603-11.142-33.511-3.679c-3.268,2.461-5.765,4.86-6.894,8.964
				c-1.363,4.955-0.057,11.064,3.858,14.594c0.916,0.826,1.814,1.665,2.7,2.524c0.548,0.532,3.788,4.57,1.622,1.587
				c0.611,0.842,1.769,3.935,0.461,0.31c-0.829-2.298,0.368-5.257,1.885-6.967c-5.42,6.111-6.038,15.175,0,21.213
				c5.52,5.52,15.785,6.12,21.213,0c5.716-6.445,8.521-14.761,5.478-23.2c-2.399-6.652-6.954-11.999-12.145-16.679
				c-1.012,7.853-2.023,15.706-3.036,23.559c0.955-0.719,3.312-1.701-0.495-0.202c1.236-0.487,3.772-0.34-0.352-0.103
				c3.265-0.188-3.422-0.856-0.241-0.011c-2.07-0.98-2.392-1.081-0.966-0.302c-1.687-1.409-1.95-1.541-0.789-0.395
				c5.624,5.935,15.55,5.663,21.213,0C278.836,111.709,278.561,102.321,272.94,96.391L272.94,96.391z"/>
		</g>
	</g>
	<g>
		<g>
			<path fill="#574630" d="M110.048,140.76c-0.526,0.853-0.972,1.733-1.408,2.635c-0.224,0.471-0.459,0.937-0.704,1.397
				c-0.604,1.165-2.243,2.571,0.458-0.401c-4.558,5.018-5.878,12.147-2.346,18.177c3.8,6.487,13.93,10.249,20.523,5.381
				c4.909-3.624,8.127-7.148,10.429-12.856c2.076-5.149,0.801-10.918-1.578-15.672c-4.874-9.739-17.517-11.768-27.074-10.001
				c-7.964,1.472-15.162,7.669-17.713,15.282c-3.621,10.802,5.208,21.309,15.711,22.759c4.205,0.58,7.732,0.729,11.559-1.512
				c3.353-1.964,5.862-5.215,6.894-8.964c1.065-3.872,0.517-8.094-1.512-11.559c-1.751-2.989-5.353-6.395-8.964-6.894
				c-1.094-0.151-2.136-0.358-3.175-0.736c1.194,0.504,2.389,1.008,3.583,1.512c-0.298-0.119-0.584-0.26-0.859-0.426
				c0.798,0.62,1.595,1.24,2.393,1.859c1.819,2.681,2.405,3.42,1.758,2.217c0.504,1.194,1.008,2.389,1.512,3.583
				c-0.082-0.189-0.134-0.387-0.158-0.592c0.178,1.329,0.357,2.658,0.536,3.988c-0.023-0.207-0.018-0.412,0.014-0.617
				c-0.179,1.329-0.357,2.658-0.536,3.988c0.035-0.217,0.092-0.427,0.174-0.631c-0.504,1.194-1.008,2.389-1.512,3.583
				c0.527-1.172,1.619-2.328-1.568,1.77c0.264-0.339,0.592-0.627,0.91-0.914c-3.925,3.538-1.756,1.305-0.079,0.541
				c-1.195,0.504-2.389,1.008-3.583,1.512c1.2-0.49,2.407-0.82,3.691-0.999c-1.329,0.179-2.658,0.357-3.988,0.536
				c1.022-0.095,1.993-0.069,3.013,0.041c-1.329-0.178-2.658-0.357-3.987-0.536c1.145,0.183,2.209,0.453,3.279,0.902
				c-1.195-0.504-2.389-1.008-3.583-1.512c1.292,0.653,2.293,1.857-1.193-1.134c1.726,1.481-2.215-3.447-1.237-1.493
				c-0.504-1.194-1.008-2.389-1.512-3.583c0.121,0.279,0.21,0.568,0.266,0.866c-0.178-1.329-0.357-2.658-0.536-3.987
				c0.063,0.479,0.069,0.903,0.027,1.384c0.179-1.329,0.357-2.658,0.536-3.987c-0.1,0.514-0.239,0.965-0.435,1.451
				c0.504-1.194,1.008-2.389,1.512-3.583c-0.596,1.171-1.839,2.341,1.021-1.066c-0.711,0.848-2.776,2.235,0.825-0.423
				c6.059,7.853,12.118,15.706,18.177,23.559c2.827-3.111,4.218-6.257,6.346-9.703c4.298-6.962,1.541-16.468-5.381-20.523
				C123.389,131.171,114.335,133.815,110.048,140.76L110.048,140.76z"/>
		</g>
	</g>
	<g>
		<g>
			<path fill="#574630" d="M101.667,124.664c-0.222,0-0.445,0-0.667,0c-3.962,0-7.806,1.593-10.606,4.394S86,135.702,86,139.664
				s1.593,7.806,4.394,10.606s6.644,4.394,10.606,4.394c0.222,0,0.445,0,0.667,0c3.962,0,7.806-1.593,10.606-4.394
				s4.394-6.644,4.394-10.606s-1.593-7.806-4.394-10.606S105.629,124.664,101.667,124.664L101.667,124.664z"/>
		</g>
	</g>
	<g>
		<g>
			<path fill="#574630" d="M121.667,157.998c19.346,0,19.346-30,0-30S102.321,157.998,121.667,157.998L121.667,157.998z"/>
		</g>
	</g>
	<g>
		<g>
			<path fill="#574630" d="M125.667,154.664c19.346,0,19.346-30,0-30S106.321,154.664,125.667,154.664L125.667,154.664z"/>
		</g>
	</g>
	<g>
		<g>
			<path fill="#574630" d="M264.94,400.938c-0.779,0.959-1.768,1.587-2.965,1.882c1.768-0.701,3.521-1.438,5.263-2.203
				c-6.842-1.794-13.683-3.588-20.523-5.382c-1.837-3.276-0.333-0.858-0.012,0.417c0.925,3.676-0.15-3.049-0.036,0.013
				c3.671-4.821,7.342-9.643,11.013-14.464c-5.396,2.098-10.729,3.985-14.619,8.524c7.853,6.059,15.706,12.118,23.559,18.178
				c5.396-8.44,8.678-18.831,8.048-28.905c-0.549-8.778-6.452-14.176-15-15c-8.799-0.849-17.157,3.994-21.619,11.429
				c-4.21,7.016-1.606,16.43,5.381,20.523c7.115,4.168,16.323,1.617,20.523-5.381c-0.667,0.988-1.512,1.787-2.535,2.396
				c-0.864,0.593-4.903,0.729-1.75,1.032c-5-5-10-10-15-15c0.088,1.406,0.098,2.771,0.037,4.178c0.133-3.065-0.545,2.25-0.75,3.002
				c-0.069,0.251-1.761,4.526-0.52,1.75c-0.756,1.691-1.723,3.276-2.719,4.833c-9.106,14.242,12.405,31.191,23.559,18.178
				c2.423-2.826-2.598,1.208,0.465-0.488c-3.311,1.833,0.218-0.049,0.916-0.321c6.127-2.382,11.279-7.324,11.013-14.464
				c-0.204-5.463-1.36-10.777-4.048-15.57c-4.331-7.725-13.154-8.622-20.522-5.382c6.245-2.746-4.265,1.808-2.667,1.083
				c-2.146,0.973-3.865,2.454-5.702,3.93c-6.386,5.126-5.308,15.905,0,21.213C249.977,407.187,258.571,406.052,264.94,400.938
				L264.94,400.938z"/>
		</g>
	</g>
	<g>
		<g>
			<path fill="#574630" d="M315.728,453.604c2.461,2.55-1.456-2.446-0.688-0.865c-0.504-1.194-1.008-2.389-1.512-3.583
				c0.037,0.124,0.074,0.248,0.111,0.372c-0.179-1.329-0.357-2.658-0.535-3.987c0.01,0.12,0.021,0.239,0.031,0.359
				c0.179-1.329,0.357-2.659,0.536-3.988c-0.009,0.245-0.071,0.474-0.188,0.688c0.504-1.194,1.008-2.389,1.512-3.583
				c0.968-1.677,2.272-3.023,3.915-4.039c-0.662,0.438-1.426,0.745-2.146,1.067c-6.293,2.819-8.188,10.874-6.894,16.939
				c1.733,8.128,7.76,14.325,15.568,16.833c7.593,2.438,17.225-0.716,22.168-6.88c3.451-4.303,5.399-8.99,3.857-14.594
				c-1.77-6.433-7.793-11.016-14.464-11.013c-4.693,0.002-9.383,0.176-13.987,1.202c6.15,6.15,12.301,12.301,18.451,18.451
				c0.076-0.457,0.199-0.901,0.369-1.333c-0.505,1.194-1.009,2.389-1.513,3.583c0.557-1.226,1.872-2.592-0.908,0.765
				c0.454-0.549,1.021-1.006,1.562-1.462c-3.529,2.974-1.456,1.177-0.516,0.552c0.92-0.611,1.856-1.198,2.78-1.806
				c2.254-1.334,4.047-3.127,5.381-5.381c1.821-3.11,2.967-8.063,1.512-11.559c-1.805-4.338-3.435-7.515-7.679-10.09
				c-2.923-1.774-5.725-1.763-8.981-2.09c1.329,0.179,2.658,0.357,3.987,0.535c-0.157-0.055-0.313-0.11-0.471-0.166
				c-7.711-2.735-16.401,3.024-18.451,10.477c-2.287,8.314,2.777,15.721,10.477,18.451c1.755,0.623,3.71,0.82,5.571,0.703
				c-1.329-0.179-2.659-0.357-3.988-0.536c0.1,0.015,0.199,0.028,0.299,0.042c-1.194-0.504-2.389-1.008-3.584-1.512
				c0.092,0.056,0.184,0.111,0.275,0.167c-1.794-1.794-3.588-3.588-5.382-5.382c0.087,0.118,0.173,0.236,0.26,0.354
				c-0.504-1.194-1.009-2.389-1.513-3.583c0.084,0.201,0.168,0.402,0.252,0.604c2.298-5.646,4.596-11.293,6.893-16.939
				c-6.768,4.454-13.683,9.142-15.56,17.631c-2.527,11.428,7.009,21.001,18.451,18.451c0.677-0.15,1.349-0.267,2.035-0.362
				c-1.329,0.179-2.658,0.357-3.987,0.535c2.647-0.291,5.305-0.302,7.965-0.303c-3.535-8.535-7.071-17.071-10.606-25.606
				c-0.393,0.489-0.793,0.93-1.247,1.361c3.176-3.023,2.233-1.557,0.681-0.898c1.194-0.504,2.389-1.008,3.583-1.513
				c-0.5,0.169-0.978,0.291-1.498,0.381c1.329-0.179,2.658-0.357,3.988-0.536c-0.511,0.048-0.988,0.054-1.499,0.02
				c1.329,0.179,2.658,0.357,3.987,0.536c-0.677-0.102-1.281-0.27-1.913-0.53c1.194,0.504,2.389,1.008,3.583,1.512
				c-2.803-1.438,2.547,2.426,0.952,0.802c3.061,3.116,1.544,2.206,0.822,0.528c0.504,1.194,1.008,2.389,1.513,3.583
				c-0.229-0.651-0.403-1.285-0.548-1.96c-2.298,5.646-4.596,11.293-6.894,16.939c5.379-2.41,8.475-6.334,10.644-11.715
				c2.542-6.306-1.356-13.441-5.607-17.844c-5.678-5.881-15.51-5.703-21.213,0C309.872,438.245,310.052,447.725,315.728,453.604
				L315.728,453.604z"/>
		</g>
	</g>
	<g>
		<g>
			<path fill="#574630" d="M381.728,367.058c-2.261,2.417,2.895-1.69,0.186,0.013c-1.424,0.724-1.06,0.575,1.093-0.446
				c-0.586,0.178-1.181,0.318-1.784,0.421c4.478-0.908,0.571-0.272-0.74-0.333c-1.654-0.154-1.292-0.09,1.086,0.194
				c-0.641-0.107-1.278-0.231-1.913-0.373c3.492,6.15,6.984,12.301,10.477,18.451c1.002-6.068,2.991-11.761,3.203-17.987
				c-3.671,4.821-7.342,9.643-11.013,14.464c1.001-0.237,5.229-0.838,0.679-0.297c1.445-0.172,5.293,0.521,0.68-0.369
				c-1.194-9.139-2.389-18.277-3.584-27.416c-1.89,0.874-3.595,2.285-5.029,3.779c-0.956,1.221-1.905,2.446-2.848,3.678
				c-0.912,1.261-0.631,0.891,0.842-1.111c-5.411,6.12-6.045,15.169,0,21.213c5.513,5.514,15.795,6.129,21.213,0
				c1.207-1.365,2.279-2.839,3.372-4.296c-0.456,0.577-0.911,1.153-1.366,1.729c-2.123,1.324-2.471,1.628-1.041,0.912
				c11.585-5.356,8.721-25.045-3.584-27.416c-5.935-1.145-11.431-0.728-17.308,0.666c-6.624,1.57-10.791,7.95-11.013,14.464
				c-0.104,1.72-0.033,1.558,0.213-0.487c-0.174,1.179-0.48,2.344-0.761,3.5c-0.565,2.332-1.192,4.629-1.583,7
				c-1.263,7.646,1.875,16.653,10.477,18.451c11.061,2.312,23.064,1.575,31.261-7.19c5.58-5.968,5.924-15.289,0-21.213
				C397.307,361.424,387.312,361.085,381.728,367.058L381.728,367.058z"/>
		</g>
	</g>
	<g>
		<g>
			<path fill="#574630" d="M433.87,252.344c-2.69,11.178-3.121,23.633,8.542,29.899c6.362,3.418,14.366,3.727,20.753,0.167
				c6.616-3.688,9.621-10.089,10.169-17.413c0.518-6.919-5.025-12.358-11.013-14.464c-7.946-2.795-15.849-1.271-23.987-1.869
				c4.317,7.523,8.635,15.047,12.952,22.57c2.284-5.135,3.688-9.931,4.048-15.57c0.521-8.168-7.217-15-15-15
				c-8.57,0-14.48,6.843-15,15c-0.087,1.248,0.031,0.425,0.355-2.47c-0.092,0.58-0.198,1.157-0.319,1.732
				c-0.208,1.056-1.801,5.242,0.012,1.167c-4.751,10.681,0.872,21.685,12.952,22.57c2.866,0.21,5.704,0.092,8.571-0.035
				c1.431-0.063,2.854-0.065,4.285-0.037c1.806,0.128,1.905,0.125,0.299-0.009c0.976,0.216,1.929,0.508,2.857,0.878
				c-3.671-4.821-7.342-9.643-11.013-14.464c0.436-5.821,4.28-9.451,9.979-10.012c2.595,0.514,3.091,0.57,1.486,0.17
				c4.421,1.225,6.864,4.72,7.329,10.485c-0.125-1.006,0.412-5.358-0.206-0.963c0.206-1.467,0.529-2.92,0.875-4.359
				c1.912-7.942-2.407-16.232-10.477-18.452C444.636,239.753,435.783,244.396,433.87,252.344L433.87,252.344z"/>
		</g>
	</g>
	<g>
		<g>
			<path fill="#574630" d="M65.012,256.533c-5.172,2.095-9.128,5.161-13.262,8.872c-1.376,1.236-2.741,2.483-4.144,3.689
				c-2.351,2.021,2.858-2.046,0.604-0.455c-7.551,5.331,19.068,20.067,19.16,11.692c-0.046,4.277-0.498,3.161,0.031,1.479
				c0.879-2.798-1.589,3.442-0.256,0.551c0.916-1.987,2.021-3.89,3.128-5.774c1.597-2.721,3.368-5.329,5.013-8.019
				c-7.853,1.012-15.706,2.023-23.559,3.035c2.649,2.18-1.417-2.813,0.311,0.11c-2.008-3.397,0.067,0.393,0.424,1.507
				c1.188,3.709,2.523,7.573,4.92,10.682c4.983,6.46,12.787,9.913,20.523,5.381c6.377-3.735,10.389-14.03,5.381-20.523
				c-0.634-0.821-2.538-4.908-1.176-1.369c-0.537-1.396-0.941-2.849-1.412-4.268c-1.565-4.706-3.845-9.514-7.758-12.732
				c-7.481-6.154-18.159-5.798-23.559,3.036c-6.227,10.186-16.676,23.561-9.79,35.856c5.118,9.138,16.941,10.467,24.923,4.408
				c2.95-2.239,5.706-4.594,8.449-7.072c0.901-0.814,1.813-1.614,2.737-2.4c1.244-1.013,0.854-0.718-1.17,0.883
				c1.103-0.816,3.253-1.582-1.542,0.359c7.572-3.066,12.836-9.873,10.477-18.451C81.485,259.816,72.604,253.458,65.012,256.533
				L65.012,256.533z"/>
		</g>
	</g>
	<g>
		<g>
			<path fill="#574630" d="M68,258.997c0-0.117,0.01-0.232,0.03-0.348c-0.179,1.329-0.357,2.658-0.536,3.987
				c0.056-0.267,0.142-0.514,0.246-0.765c-0.504,1.194-1.008,2.389-1.512,3.583c1.495-3.483,2.291-4.788,2.364-8.678
				c0.084-4.493-1.998-8.515-4.985-11.72c-2.655-2.85-6.762-4.394-10.606-4.394c-2.708,0.008-5.231,0.691-7.571,2.048
				c-2.254,1.333-4.048,3.127-5.381,5.381c-1.862,4.104-1.684,3.596-2.217,8.046c-0.337,2.813,0.935,5.592,2.081,8.027
				c0.781,1.66,1.98,2.549,3.037,3.794c-0.782-1.012-1.563-2.023-2.346-3.036c0.034,0.044,0.062,0.092,0.082,0.144
				c-0.504-1.194-1.008-2.39-1.512-3.584c0.007,0.027,0.015,0.054,0.022,0.08c-0.179-1.329-0.357-2.658-0.536-3.987
				c0.002,0.029,0.005,0.058,0.008,0.087c0.179,1.329,0.357,2.658,0.536,3.987c0.713,2.541,1.999,4.748,3.858,6.619
				c2.8,2.801,6.644,4.394,10.606,4.394s7.806-1.593,10.606-4.394c0.782-1.012,1.564-2.023,2.346-3.036
				c1.357-2.339,2.04-4.862,2.048-7.57c-0.364-3.979-0.379-4.189-2.079-7.738c-0.586-1.224-1.604-2.208-2.482-3.244
				c-0.163-0.192-0.383-0.322-0.542-0.521c0.782,1.012,1.563,2.024,2.346,3.036c-0.039-0.053-0.07-0.11-0.094-0.171
				c0.504,1.194,1.008,2.389,1.512,3.583c-0.026-0.066-0.042-0.135-0.047-0.206c0.178,1.329,0.357,2.658,0.536,3.987
				c-0.006-0.084-0.002-0.167,0.014-0.25c-0.179,1.33-0.357,2.659-0.536,3.988c0.02-0.104,0.05-0.205,0.091-0.303
				c-0.504,1.194-1.008,2.389-1.512,3.583c0.026-0.058,0.053-0.115,0.079-0.174c-7.853,1.013-15.706,2.024-23.559,3.036
				c0.109,0.108,0.209,0.225,0.3,0.349c-0.782-1.013-1.563-2.024-2.345-3.036c0.073,0.101,0.136,0.207,0.186,0.321
				c-0.504-1.194-1.008-2.39-1.512-3.584c0.042,0.097,0.072,0.196,0.09,0.301c-0.179-1.33-0.357-2.659-0.536-3.988
				c0.015,0.148,0.013,0.276-0.006,0.424c0.179-1.329,0.357-2.658,0.536-3.987c-0.042,0.19-0.104,0.367-0.176,0.548
				c0.504-1.195,1.008-2.39,1.512-3.583c-1.592,3.745-2.258,4.796-2.443,8.963c-0.172,3.876,1.695,7.908,4.394,10.606
				c2.8,2.801,6.644,4.394,10.606,4.394s7.806-1.593,10.606-4.394C66.509,266.702,67.821,263.037,68,258.997L68,258.997z"/>
		</g>
	</g>
	<g>
		<g>
			<path fill="#574630" d="M57.727,278.271c-1.885-1.826-2.774-3.97-2.667-6.429c-0.016,1.631,0.086,1.25,0.306-1.145
				c-0.466,1.539-0.299,1.292,0.502-0.74c-0.4,0.902-2.42,3.304,0.022,0.397c-1.179,1.128-0.932,1.025,0.74-0.306
				c-2.614,1.985,3.102-0.769,0.046,0.1c2.856-0.812,6.191-0.131,7.881,2.451c0.701,1.903,0.823,2.056,0.365,0.456
				c0.249,2.134,0.334,2.334,0.259,0.601c0.016-0.777,0.066-1.553,0.152-2.326c-0.346,3.94,0.046,0.132,0.18-0.617
				c0.999-5.561,1.495-10.125,0.618-15.703c-2.298,5.646-4.596,11.293-6.894,16.939c1.65-0.852,1.675-0.88,0.075-0.083
				c2.775-0.95-1.822-0.208-2.728-0.339c1.568,0.445,1.215,0.257-1.057-0.565c-0.551-0.442-1.102-0.884-1.653-1.325
				c1.074,1.136,0.815,0.791-0.775-1.032c-0.85-2.299-1.052-2.679-0.608-1.142c-0.113-0.729-0.225-1.46-0.338-2.189
				c-0.072,1.628-0.014,1.247,0.176-1.144c-0.707,3.215,1.604-2.735-0.303,0.254c2.126-3.333-1.812,0.782,0.736-1.005
				c-0.629,0.446-1.28,0.858-1.953,1.235c-3.428,2.048,2.775-0.82-1.26,0.615c-0.888,0.292-1.789,0.531-2.703,0.721
				c3.454-0.816-2.545-0.49,1.149,0.107c-2.354-0.753-1.771-0.325,1.75,1.283c1.954,1.717,2.335,5.205,1.769,7.642
				c-0.794,3.415-0.111,0.343,0.449-0.702c0.664-1.238,1.343-2.465,1.989-3.712c3.758-7.263,1.937-16.236-5.381-20.523
				c-6.777-3.97-16.769-1.874-20.523,5.382c-2.797,5.406-5.669,10.36-6.23,16.568c-0.697,7.721,4.279,16.134,10.945,19.954
				c12.897,7.39,28.415,3.087,39.331-5.82c9.946-8.116,12.457-21.35,6.91-32.666c-6.523-13.307-23.55-13.389-34.907-7.418
				c-6.397,3.363-7.917,10.436-6.894,16.939c-0.984-6.258-1.053,2.84-0.229-2.434c-0.233,1.493-0.534,2.977-0.786,4.467
				c-0.89,5.257-1.194,9.652-0.368,14.905c1.818,11.555,11.869,18.917,22.962,19.884c9.315,0.813,17.913-6.477,22.503-13.796
				c5.999-9.566,4.295-20.438-2.346-28.953c-5.037-6.46-15.966-5.247-21.213,0C51.417,263.367,52.704,271.829,57.727,278.271
				L57.727,278.271z"/>
		</g>
	</g>
	<g>
		<g>
			<path fill="#574630" d="M151.381,225.427c-0.283,0.45-3.522,5.099-1.832,2.943c-1.126,1.435-2.41,2.728-3.732,3.979
				c-1.313,1.123-1.345,1.166-0.095,0.128c-0.738,0.502-1.499,0.965-2.283,1.391c-1.551,0.76-1.613,0.815-0.186,0.166
				c-0.91,0.324-1.833,0.603-2.771,0.836c-0.697,0.192-6.332,1.042-3.625,0.832c-0.914,0.045-1.827,0.033-2.739-0.038
				c1.91,0.291,2.066,0.249,0.469-0.125c6.01,1.639,7.958,9.938,5.292,15.088c-0.359,0.834-0.936,1.444-1.729,1.831
				c0.991-0.678,2.021-1.291,3.087-1.841c7.132-3.975,9.449-13.58,5.381-20.523c-4.192-7.156-13.379-9.362-20.523-5.381
				c-8.714,4.856-17.921,14.48-14.337,25.488c3.406,10.46,12.182,14.299,22.359,15.464c8.323,0.951,18.513-2.47,25.625-6.561
				c7.472-4.298,13.03-11.367,17.542-18.535c4.359-6.926,1.495-16.495-5.381-20.523C164.676,215.811,155.728,218.52,151.381,225.427
				L151.381,225.427z"/>
		</g>
	</g>
	<g>
		<g>
			<path fill="#574630" d="M139,251.33c19.346,0,19.346-30,0-30S119.654,251.33,139,251.33L139,251.33z"/>
		</g>
	</g>
	<g>
		<g>
			<path fill="#574630" d="M155.464,228.985c0.021-0.068,0.042-0.136,0.063-0.205c-1.286,2.207-2.572,4.413-3.857,6.619
				c-1.495,1.473-3.245,2.513-5.248,3.121c0.634-0.217,1.318-0.31,1.976-0.422c-5.215,0.891,0.09,0.209,1.438,0.218
				c0.669,0.014,1.337,0.046,2.004,0.099c3.53,0.225-3.44-0.658-0.077,0.046c1.169,0.245,3.707,1.546-0.242-0.33
				c2.035,0.967-2.482-2.313-2.805-2.897c2.988-7.345,5.977-14.69,8.964-22.035c-4.104,1.136-9.103,0.863-14.873,0.528
				c-6.758-0.393-13.079-0.202-19.794,0.806c-12.829,1.926-14.568,21.962-3.583,27.417c3.747,1.86,7.565,3.653,11.583,4.845
				c7.837,2.325,16.317-2.715,18.452-10.477c2.2-8-2.644-16.128-10.477-18.452c-1.735-0.515-2.14-0.69-4.417-1.821
				c-1.194,9.139-2.389,18.278-3.583,27.417c-1.126,0.186-0.729,0.185,1.191-0.004c1.759-0.108,3.532-0.043,5.292,0
				c2.963,0.072,5.925,0.311,8.885,0.467c6.465,0.34,13.04-0.064,19.299-1.796c9.503-2.629,13.647-13.574,8.964-22.035
				c-8.316-15.024-42.321-17.812-48.083,0.917c-2.404,7.814,2.775,16.333,10.477,18.452
				C145.073,241.679,153.062,236.793,155.464,228.985L155.464,228.985z"/>
		</g>
	</g>
	<g>
		<g>
			<path fill="#574630" d="M142.571,216.045c-2.145-1.382-4.592-1.916-6.916-2.846c3.492,3.492,6.984,6.984,10.477,10.477
				c-0.096-0.482-0.188-0.965-0.278-1.448c-0.646-3.434,0.252,2.869,0.147,1.436c-6.329,4.821-12.658,9.643-18.988,14.464
				c3.689,0.78,7.346,1.19,11.087,0.767c2.291-0.259,4.584-0.606,6.864-0.964c1.648-0.248,1.26-0.194-1.164,0.161
				c0.621-0.061,1.244-0.092,1.868-0.094c8.172-0.22,15-6.657,15-15c0-8.011-6.823-15.22-15-15c-3.233,0.087-6.44,0.653-9.63,1.154
				c-3.436,0.54,3.614-0.347,0.099-0.068c-0.669,0.042-1.34,0.049-2.01,0.023c2.271,0.404,2.558,0.435,0.862,0.093
				c-8.898-1.882-19.739,4.199-18.988,14.464c0.186,2.534,0.638,5.063,1.119,7.56c0.501,2.603,2.085,5.19,3.942,7.047
				c1.872,1.859,4.078,3.145,6.619,3.858c0.33,0.132,0.66,0.264,0.99,0.396c1.662,0.515,1.249,0.324-1.24-0.574
				c6.88,4.434,16.528,1.439,20.523-5.381C152.22,229.282,149.43,220.466,142.571,216.045L142.571,216.045z"/>
		</g>
	</g>
	<g>
		<g>
			<path fill="#574630" d="M149.904,433.949c5.092-3.713,8.783-7.523,10.654-13.652c2.04-6.681-0.71-13.391-5.035-18.406
				c-3.234-3.752-9.562-6.006-14.409-5.456c-7.628,0.865-13.005,4.53-17.067,10.991c-3.647,5.803-2.19,13.385,2.346,18.178
				c6.45,6.815,15.09,8.541,23.993,6.465c3.205-0.748,6.293-2.396,9.243-3.842c1.104-0.542,2.193-1.117,3.291-1.672
				c2.547-1.285-2.537,0.562,1.401-0.427c-4.865-8.356-9.729-16.714-14.594-25.07c-0.833,0.839-1.704,1.637-2.611,2.395
				c2.041-1.782-3.207,1.053,0.872-0.473c-1.695,0.415-1.395,0.396,0.9-0.055c0.669,0.104,1.338,0.207,2.007,0.31
				c-1.535-0.464-1.321-0.307,0.641,0.47c-4.018-1.773-7.498-5.036-10.965-7.659c-2.523,9.317-5.047,18.635-7.571,27.952
				c3.622-0.361,7.241-0.391,10.875-0.19c0.917,0.06,1.833,0.144,2.747,0.251c-3.401-0.355,0.735,0.312,1.235,0.436
				c1.667,0.558,1.589,0.46-0.233-0.293c2.161,0.949,0.002-0.144-0.513-0.922c-1.583-3.116-1.741-6.091-0.474-8.924
				c1.586-2.798-0.534,0.178-1.19,0.763c-1.336,1.101-1.479,1.217-0.43,0.35c-1.183,0.876-2.392,1.718-3.586,2.578
				c-0.809,0.582-1.716,1.05-2.588,1.525c-1.004,0.548-5.435,2.329-0.964,0.567c-1.111,0.438-2.258,0.766-3.415,1.059
				c-1.619,0.318-1.136,0.274,1.448-0.132c-1.455,0.153-3.522-0.613,0.881,0.309c3.968,0.83,6.146,4.517,6.588,8.169
				c-0.001-1.992-0.128-1.618-0.38,1.122c-0.109,0.583-3.482,5.005-1.829,3.413c-2.027,1.471-2.357,1.814-0.99,1.032
				c-3.582,1.886-1.507,0.723-0.198,0.433c-4.487,0.996,0.298,0.171,1.786,0.265c-4.518-0.285,0.244,0.215,1.567,0.673
				c-2.602-0.9-2.204-0.701-3.953-3.245c4.622,6.725,13.078,9.743,20.523,5.382c6.664-3.904,10.02-13.774,5.381-20.522
				c-9.861-14.347-31.406-16.106-44.706-5.718c-8.329,6.506-8.755,18.811-4.516,27.669c4.558,9.522,15.145,11.925,24.667,10.396
				c13.878-2.228,29.25-13.673,34.276-26.526c5.033-12.869-7.321-24.134-17.988-27.994c-7.269-2.63-16.372-2.685-24.02-1.923
				c-6.737,0.671-12.561,4.094-14.464,11.013c-1.946,7.076,1.44,12.814,6.894,16.939c5.6,4.235,11.3,9.184,18.476,10.378
				c10.791,1.796,19.377-2.71,27.035-10.057c11.116-10.663-0.36-28.64-14.594-25.07c-4.169,1.045-8.041,3.188-11.857,5.122
				c-0.744,0.375-1.496,0.733-2.256,1.075c1.693-0.714,1.753-0.8,0.18-0.258c-1.715,0.383-1.498,0.358,0.652-0.072
				c1.845-0.07,7.337,4.275,4.543,1.323c0.782,6.059,1.564,12.118,2.346,18.178c-7.782,12.379-26.922-5.967-15.189-14.523
				c-6.592,4.808-9.83,12.93-5.381,20.523C133.2,435.086,143.284,438.777,149.904,433.949L149.904,433.949z"/>
		</g>
	</g>
	<g>
		<g>
			<path fill="#574630" d="M152,340.997c0.047,2.817,0.502,5.588,0.878,8.378c0.155,1.153,0.54,3.999-0.163-1.26
				c0.108,0.808,0.182,1.615,0.224,2.429c0.074,1.435-0.59,3.203,0.383-1.977c0.705-3.754,4.594-7.195,8.135-8.186
				c0.938-0.137,1.875-0.274,2.813-0.411c-1.489-0.061-0.933,0.049,1.667,0.327c-1.455-0.214-2.88-0.671-4.282-1.098
				c2.988,7.345,5.976,14.689,8.964,22.034c1.004-1.378,1.004-1.389-0.001-0.032c0.549-0.666,1.11-1.321,1.683-1.967
				c1.424-1.634,2.933-3.196,4.42-4.771c3.559-3.77,6.858-7.688,9.898-11.896c3.056-4.229,2.51-10.856,0-15.143
				c-3.564-6.084-10.286-8.265-16.94-6.893c-9.88,2.036-22.14,13.288-18.477,24.451c3.439,10.48,10.52,17.879,21.797,19.013
				c8.151,0.819,15-7.443,15-15c0-8.796-6.868-14.183-15-15c1.829,0.484,3.658,0.97,5.487,1.454c1.837,1.591,2.155,1.82,0.953,0.689
				c1.25,1.757,1.421,1.925,0.512,0.505c0.672,1.883,0.732,2.004,0.179,0.364c-0.504,3.853-1.008,7.705-1.512,11.559
				c0.343-0.578,0.711-1.141,1.103-1.687c-1.433,1.775-1.61,2.109-0.534,1.003c-0.961,1.06-2.137,1.75-3.529,2.072
				c0.651-0.221,1.316-0.386,1.996-0.496c-5.647-7.345-11.293-14.689-16.94-22.035c-1.004,1.379-1.004,1.39,0.001,0.033
				c-0.549,0.666-1.11,1.321-1.683,1.967c-1.424,1.634-2.933,3.196-4.42,4.771c-3.558,3.77-6.858,7.688-9.898,11.896
				c-5.877,8.135,0.417,19.435,8.964,22.034c9.07,2.759,22.469,2.938,26.936-7.578c1.641-3.864,2.627-7.578,2.179-11.795
				c-0.236-2.224-0.584-4.437-0.893-6.652c0.791,5.679,0.122,0.282,0.099-1.105c-0.137-8.174-6.719-15-15-15
				C158.927,325.997,151.863,332.819,152,340.997L152,340.997z"/>
		</g>
	</g>
	<g>
		<g>
			<path fill="#574630" d="M183.606,354.271c1.333-1.333,2.667-2.667,4-4c5.779-5.779,5.779-15.434,0-21.213
				c-5.779-5.779-15.434-5.779-21.213,0c-1.333,1.333-2.667,2.667-4,4c-5.78,5.778-5.778,15.435,0,21.213
				C168.173,360.051,177.827,360.049,183.606,354.271L183.606,354.271z"/>
		</g>
	</g>
	<g>
		<g>
			<path fill="#574630" d="M263.68,243.867c-1,0.44-2.033,0.781-3.099,1.021c2.302-0.638-2.442,0.026-2.581,0.026
				c-3.228-0.008-6.467-0.544-9.667-0.917c-9.8-1.143-16.931,10.42-14.464,18.987c5.952,20.677,41.021,30.088,48.487,5.202
				c1.839-6.129,1.023-13.83-4.006-18.354c-4.439-3.993-9.052-5.279-14.805-5.972c-3.184-0.384-6.396-0.368-9.596-0.49
				c-0.665-0.028-1.33-0.065-1.994-0.112c-3.46-0.22,3.508,0.64,0.29,0.077c-0.546-0.105-1.083-0.239-1.613-0.403
				c0.729,0.319,1.459,0.638,2.188,0.958c-1.325-0.787-0.841-0.397,1.452,1.167c0.782,6.059,1.563,12.118,2.346,18.177
				c0.507-0.775,1.017-1.549,1.53-2.32c-1.239,1.871,1.174-1.077,1.457-1.31c6.33-5.192,5.354-15.86,0-21.213
				c-6.204-6.204-14.898-5.181-21.213,0c-3.179,2.607-5.439,6.289-7.679,9.702c-3.648,5.559-2.275,13.647,2.346,18.177
				c8.113,7.954,19.289,6.545,29.648,7.489c-4.476-0.408-2.127-0.293-0.949,0.027c-6.1-1.659-9.151-8.399-8.066-14.461
				c0.394-2.194,2.49-3.849,4.166-5.023c2.459-0.884,2.931-1.111,1.417-0.684c2.646-0.267,3.147-0.392,1.503-0.376
				c4.036,0.08,1.897,0.261,0.462-0.175c3.708,1.125,1.271,0.541,0.17-0.102c-2.836-1.655,2.42,2.249,0.121-0.011
				c1.334,1.896,1.573,2.189,0.719,0.881c0.826,2.289,1.009,2.68,0.547,1.173c-4.821,6.329-9.643,12.658-14.464,18.987
				c7.827,0.912,15.762,1.7,23.321-1.202c7.626-2.927,12.807-9.982,10.477-18.451C280.123,247.042,271.322,240.933,263.68,243.867
				L263.68,243.867z"/>
		</g>
	</g>
	<g>
		<g>
			<path fill="#574630" d="M236.394,103.058c-0.222,0.222-0.444,0.444-0.667,0.667c-2.8,2.8-4.394,6.644-4.394,10.606
				s1.593,7.806,4.394,10.606s6.644,4.394,10.606,4.394s7.806-1.593,10.607-4.394c0.222-0.222,0.444-0.444,0.666-0.667
				c2.801-2.8,4.394-6.644,4.394-10.606s-1.593-7.806-4.394-10.606c-2.8-2.8-6.644-4.394-10.606-4.394
				S239.194,100.257,236.394,103.058L236.394,103.058z"/>
		</g>
	</g>
	<g>
		<g>
			<path fill="#574630" d="M241.429,100.045c2.494-0.934,3-1.125,1.521-0.575c-1.526,0.391-2.922,1.027-4.188,1.908
				c-6.143,4.024-8.02,9.913-6.894,16.94c1.197,7.468,7.433,13.723,14.448,15.999c9.687,3.142,18.714-2.888,21.828-11.966
				c2.487-7.255-0.946-17.159-6.806-21.855c-2.372-1.901-4.434-3.31-7.109-4.599c-0.791-0.381-1.562-0.788-2.316-1.237
				c-1.242-0.838-0.731-0.438,1.53,1.203c-1.017-1.077-0.624-0.556,1.176,1.564c-4.419-6.859-13.238-9.649-20.523-5.381
				c-7.206,4.221-9.294,13.342-5.381,20.523c7.843,14.394,28.529,18.161,39.559,5.036c5.255-6.253,6.153-15.06,0-21.213
				c-5.404-5.404-15.948-6.266-21.213,0c-0.36,0.464-0.753,0.897-1.18,1.3c2.002-1.42,2.362-1.724,1.08-0.91
				c2.446-0.912,2.938-1.137,1.478-0.675c0.847-0.1,1.694-0.2,2.541-0.3c-1.581,0.005-0.976,0.146,1.816,0.42
				c-0.481-0.088-0.952-0.214-1.412-0.38c2.402,1.107,2.929,1.274,1.577,0.502c1.96,1.621,2.373,1.896,1.239,0.826
				c2.653,2.613,1.159,1.61,0.42,0.253c-8.635,5.047-17.27,10.094-25.904,15.142c2.273,3.528,4.997,6.175,8.612,8.325
				c0.949,0.564,1.976,1.009,2.968,1.491c1.276,0.619,4.372,2.965,0.34-0.266c1.063,1.042,0.722,0.519-1.023-1.571
				c0.749,1.292,0.549,0.739-0.601-1.66c0.37,1.579,0.305,1.01-0.195-1.704c-0.351-6.933,6.598-11.463,12.793-12.075
				c2.088-0.003,4.026,0.528,5.816,1.592c-2.095-0.94,3.039,2.739,1.322,1.016c1.647,2.317,2.083,2.834,1.305,1.553
				c1.933,3.32,1.017,2.772,0.745,1.075c-2.298,5.647-4.596,11.293-6.894,16.94c-2.494,0.934-3,1.125-1.521,0.575
				c1.525-0.391,2.922-1.027,4.187-1.908c6.826-4.471,9.673-13.197,5.382-20.523C257.979,98.646,248.276,95.56,241.429,100.045
				L241.429,100.045z"/>
		</g>
	</g>
	<g>
		<g>
			<path fill="#574630" d="M377.68,122.533c-0.884,0.229-1.772,0.435-2.667,0.617c0.887-0.303,1.767-0.286,2.642,0.049
				c1.194,9.139,2.389,18.278,3.584,27.417c1.464-1.03,2.97-2.021,4.171-3.358c-0.309,0.343,6.132-8.229,1.531-2.321
				c3.402-4.369,5.415-8.934,3.857-14.594c-1.462-5.314-5.44-8.706-10.477-10.477c-4.99-1.754-10.723-1.864-15.987-1.869
				c-8.177-0.007-15,6.829-15,15c0,8.182,6.823,14.993,15,15c1.681,0.001,3.357,0.043,5.035,0.135
				c0.986,0.055,4.309,0.501-0.249-0.146c1.106,0.157,2.175,0.438,3.227,0.808c-2.207-8.357-4.413-16.714-6.619-25.071
				c-0.898,1.152-1.793,2.309-2.683,3.468c-1.635,2.673-1.593,0.787,3.051-2.48c-4.43,3.117-7.429,7.317-7.429,12.952
				c0,6.168,4.524,13.353,11.013,14.464c5.608,0.96,10.454,0.688,15.975-0.667c7.939-1.948,12.598-10.74,10.477-18.452
				C393.919,124.967,385.614,120.587,377.68,122.533L377.68,122.533z"/>
		</g>
	</g>
	<g>
		<g>
			<path fill="#574630" d="M372.764,137.95c2.666,1.333,5.333,2.667,8,4c3.853-9.139,7.705-18.278,11.558-27.417
				c-6.009-2.428-12.892-3.225-19.321-2.536c-8.127,0.871-15,6.164-15,15c0,7.516,6.854,15.874,15,15
				c2.281-0.245,4.517-0.289,6.805-0.123c-3.988-0.291-0.507-0.006,0.394,0.199c1.426,0.324,2.797,0.842,4.148,1.388
				c6.145,2.483,13.835-1.594,16.939-6.894c3.927-6.704,1.928-16.869-5.382-20.523c-2.666-1.333-5.333-2.667-8-4
				c-7.313-3.657-16.193-2.009-20.522,5.381C363.455,124.13,365.454,134.295,372.764,137.95L372.764,137.95z"/>
		</g>
	</g>
	<g>
		<g>
			<path fill="#574630" d="M467.238,265.283c0.175-0.088,0.352-0.17,0.532-0.247c-1.194,0.504-2.389,1.008-3.583,1.512
				c0.4-0.161,0.798-0.291,1.224-0.367c-1.329,0.179-2.658,0.357-3.987,0.536c0.304-0.041,0.604-0.052,0.91-0.053c-5-5-10-10-15-15
				c0.066,2.012,0.507,3.996,0.785,5.987c-0.178-1.329-0.356-2.658-0.535-3.987c0.04,0.388,0.051,0.755,0.015,1.143
				c0.179-1.329,0.356-2.658,0.535-3.987c-0.026,0.195-0.073,0.386-0.141,0.571c0.504-1.194,1.008-2.389,1.512-3.583
				c-0.041,0.095-0.082,0.19-0.123,0.286c-0.504,1.194-1.008,2.389-1.512,3.583c-0.715,2.658-0.715,5.316,0,7.975
				c1.031,3.75,3.54,7.001,6.894,8.965c3.464,2.029,7.687,2.577,11.558,1.512c1.194-0.504,2.389-1.008,3.583-1.512
				c2.255-1.334,4.048-3.127,5.382-5.382c0.593-1.377,1.286-2.718,1.722-4.154c0.468-1.542,0.601-3.225,0.621-4.845
				c0.024-1.906-0.465-3.814-0.759-5.702c0.179,1.329,0.357,2.659,0.536,3.988c-0.037-0.287-0.063-0.568-0.072-0.857
				c-0.133-4.021-1.517-7.73-4.394-10.606c-2.796-2.796-6.647-4.4-10.606-4.394c-3.931,0.007-6.755,1.035-10.238,2.715
				c-1.012,0.782-2.023,1.563-3.035,2.346c-1.859,1.872-3.146,4.078-3.857,6.619c-1.065,3.872-0.518,8.094,1.512,11.559
				c1.964,3.353,5.215,5.861,8.965,6.893c1.329,0.179,2.658,0.357,3.987,0.536C462.375,267.322,464.898,266.64,467.238,265.283
				L467.238,265.283z"/>
		</g>
	</g>
	<g>
		<g>
			<path fill="#574630" d="M292.764,45.378c-1.415,0.721-2.814,1.956-3.916,2.876c-2.353,1.965-3.24,4.496-4.328,7.219
				c-0.884,2.21-0.68,6.394,0.026,8.598c0.98,3.057,2.273,5.205,4.515,7.533c2.721,2.828,6.709,4.394,10.606,4.394
				c3.962,0,7.807-1.593,10.606-4.394c2.801-2.8,4.394-6.644,4.394-10.606c0-4.027-1.623-7.727-4.394-10.606
				c-0.131-0.136-0.254-0.273-0.372-0.421c0.782,1.012,1.563,2.024,2.346,3.036c-0.113-0.158-0.208-0.314-0.285-0.493
				c0.504,1.194,1.009,2.389,1.513,3.583c-0.027-0.072-0.047-0.146-0.06-0.222c0.179,1.329,0.357,2.659,0.536,3.988
				c-0.011-0.069-0.014-0.138-0.008-0.207c-0.179,1.329-0.357,2.658-0.536,3.987c0.015-0.103,0.038-0.189,0.077-0.286
				c-0.504,1.194-1.008,2.389-1.512,3.583c0.029-0.063,0.064-0.122,0.105-0.178c-0.781,1.012-1.563,2.024-2.346,3.036
				c0.1-0.124,0.207-0.228,0.328-0.33c-1.012,0.782-2.023,1.564-3.035,2.346c0.275-0.208,0.572-0.374,0.879-0.53
				c1.013-0.782,2.024-1.564,3.036-2.346c1.859-1.872,3.146-4.078,3.857-6.619c1.065-3.872,0.518-8.094-1.512-11.559
				c-1.964-3.353-5.215-5.862-8.965-6.894c-1.329-0.178-2.658-0.357-3.987-0.536C297.626,43.339,295.103,44.021,292.764,45.378
				L292.764,45.378z"/>
		</g>
	</g>
	<g>
		<g>
			<path fill="#574630" d="M301.728,54.391c-0.223,0.222-0.444,0.444-0.667,0.667c-2.801,2.799-4.394,6.646-4.394,10.606
				c0,3.962,1.593,7.806,4.394,10.606c2.8,2.8,6.645,4.394,10.606,4.394c3.964,0,7.805-1.594,10.606-4.394
				c0.223-0.222,0.445-0.444,0.667-0.667c2.801-2.799,4.394-6.646,4.394-10.606c0-3.962-1.593-7.806-4.394-10.606
				c-2.8-2.8-6.645-4.394-10.606-4.394C308.37,49.998,304.529,51.591,301.728,54.391L301.728,54.391z"/>
		</g>
	</g>
	<g>
		<g>
			<path fill="#574630" d="M197,44.664c19.346,0,19.346-30,0-30S177.654,44.664,197,44.664L197,44.664z"/>
		</g>
	</g>
	<g>
		<g>
			<path fill="#574630" d="M178.394,28.391c0.897-0.895,1.965-1.486,3.202-1.774c-3.095,1.212,3.416-0.062,0.071,0.047
				c5,5,10,10,15,15c0.21-3.843-0.613,3.067-0.098,0.644c0.268-1.258,1.588-4.282-0.521,0.645c0.308-0.719,0.709-1.394,1.122-2.057
				c1.254-2.016-2.862,3.304-0.619,0.835c0.482-0.531,1.027-1.001,1.577-1.46c-3.985,3.33-2.092,1.593-0.909,0.897
				c1.172-0.689,3.808-1.518-1.378,0.487c0.568-0.22,1.159-0.373,1.75-0.513c2.186-0.517-4.81,0.398-1.903,0.283
				c2.822-0.112-4.113-0.758-2.115-0.354c2.554,0.517-3.68-1.829-2.026-0.892c-2.547-2.107-3.312-2.694-2.296-1.761
				c-1.934-2.694-2.527-3.458-1.779-2.291c-1.195-3.133-1.575-4.025-1.141-2.677c0.309,1.409,0.182,0.436-0.382-2.919
				c0.194,2.838,0.8-4.061,0.247-1.846c-0.781,3.127,1.579-3.234,0.453-0.984c-0.54,1.08-1.236,2.079-1.934,3.06
				c-4.748,6.675-1.198,16.668,5.381,20.523c7.531,4.411,15.794,1.267,20.523-5.381c4.001-5.625,7.224-14.211,4.417-21.049
				c-3.41-8.303-10.458-13.779-19.75-13.412c-16.322,0.646-27.763,14.573-28.619,30.223c-0.436,7.978,7.154,15.256,15,15
				c7.006-0.229,12.68-2.415,17.939-7.06c6.132-5.415,5.511-15.702,0-21.213C193.56,22.344,184.516,22.983,178.394,28.391
				L178.394,28.391z"/>
		</g>
	</g>
</g>
<g id="Android">
	<g>
		<g>
			<defs>
				<rect id="SVGID_1_" x="8" y="-10" width="500" height="500"/>
			</defs>
			<clipPath id="SVGID_2_">
				<use xlink:href="#SVGID_1_"  overflow="visible"/>
			</clipPath>
			<g clip-path="url(#SVGID_2_)">
				<defs>
					<rect id="SVGID_3_" x="8" y="-10" width="500" height="500"/>
				</defs>
				<clipPath id="SVGID_4_">
					<use xlink:href="#SVGID_3_"  overflow="visible"/>
				</clipPath>
				<path clip-path="url(#SVGID_4_)" fill="#94C85A" d="M241.835,109.787c0,0-141.348,8.069-146.492,153.784V371
					c0,0,1.714,24,24.572,24h121.571H258h121.571c22.857,0,24.571-24,24.571-24V263.571
					c-5.144-145.715-144.934-153.784-144.934-153.784H241.835z"/>
				<path clip-path="url(#SVGID_4_)" fill="#FFFFFF" d="M203,195c0,10.77-8.73,19.5-19.5,19.5S164,205.77,164,195
					c0-10.77,8.73-19.5,19.5-19.5S203,184.23,203,195"/>
				<path clip-path="url(#SVGID_4_)" fill="#FFFFFF" d="M336,195c0,10.77-8.73,19.5-19.5,19.5S297,205.77,297,195
					c0-10.77,8.73-19.5,19.5-19.5S336,184.23,336,195"/>
				<path clip-path="url(#SVGID_4_)" fill="#94C85A" d="M326,126.5l30.75-42.75c0,0,3.907-6.582,7.75-3.75
					c4.75,3.5,1.5,7.25,1.5,7.25l-29.5,47l0.25,8l-15,9.25L311,142l11.5-11L326,126.5z"/>
				<path clip-path="url(#SVGID_4_)" fill="none" stroke="#94C85A" stroke-miterlimit="10" d="M326,126.5l30.75-42.75
					c0,0,3.907-6.582,7.75-3.75c4.75,3.5,1.5,7.25,1.5,7.25l-29.5,47l0.25,8l-15,9.25L311,142l11.5-11L326,126.5z"/>
				<path clip-path="url(#SVGID_4_)" fill="#94C656" d="M173.11,125.485l-30.75-42.75c0,0-3.907-6.582-7.75-3.75
					c-4.75,3.5-1.5,7.25-1.5,7.25l29.5,47l-0.25,8l15,9.25l10.75-9.5l-11.5-11L173.11,125.485z"/>
				<path clip-path="url(#SVGID_4_)" fill="none" stroke="#94C656" stroke-miterlimit="10" d="M173.11,125.485l-30.75-42.75
					c0,0-3.907-6.582-7.75-3.75c-4.75,3.5-1.5,7.25-1.5,7.25l29.5,47l-0.25,8l15,9.25l10.75-9.5l-11.5-11L173.11,125.485z"/>
			</g>
			<g clip-path="url(#SVGID_2_)">
				<defs>
					<path id="SVGID_5_" d="M241.835,109.787c0,0-141.347,8.069-146.491,153.785V371c0,0,1.714,24,24.571,24h121.571H258h121.571
						c22.857,0,24.57-24,24.57-24V263.572c-5.143-145.716-144.933-153.785-144.933-153.785H241.835z"/>
				</defs>
				<clipPath id="SVGID_6_">
					<use xlink:href="#SVGID_5_"  overflow="visible"/>
				</clipPath>
				<polygon clip-path="url(#SVGID_6_)" fill="#85B751" points="94.5,263.5 402.5,263.5 466.5,279.5 456.5,396.5 417,441 269,394 
					258,394.5 230,394.5 				"/>
			</g>
		</g>
	</g>
</g>
</svg>
